# xmcd
#
# Track frame offsets: 
#        182
#        15585
#        27115
#        37832
#        52905
#        65852
#        80680
#        93870
#        104865
#        119140
#
# Disc length: 1771 seconds
#
# Revision: 3
# Processed by: cddbd v1.4PL0 Copyright (c) Steve Scherf et al.
# Submitted via: ExactAudioCopy v0.90b4
#
DISCID=8206e90a
DTITLE=Reba McEntire - Heart to Heart
DYEAR=1981
DGENRE=Country
TTITLE0=Indelibly Blue
TTITLE1=Ease The Fever
TTITLE2=There Ain't No Love
TTITLE3=How Does It Feel To Be Free
TTITLE4=Only You (And You Alone)
TTITLE5=Today All Over Again
TTITLE6=Gonna Love Ya (Till The Cows Come Home)
TTITLE7=Who?
TTITLE8=Small Two-Bedroom Starter
TTITLE9=Love By Love
EXTD=
EXTT0=
EXTT1=
EXTT2=
EXTT3=
EXTT4=
EXTT5=
EXTT6=
EXTT7=
EXTT8=
EXTT9=
PLAYORDER=
